<?xml version="1.0" standalone="no"?>
<!DOCTYPE svg PUBLIC "-//W3C//DTD SVG 20010904//EN"
 "http://www.w3.org/TR/2001/REC-SVG-20010904/DTD/svg10.dtd">
<svg version="1.0" xmlns="http://www.w3.org/2000/svg"
 width="1200.000000pt" height="1202.000000pt" viewBox="0 0 1200.000000 1202.000000"
 preserveAspectRatio="xMidYMid meet">

<g transform="translate(0.000000,1202.000000) scale(0.100000,-0.100000)"
fill="#000000" stroke="none">
<path d="M6565 10934 c-12 -12 -13 -19 -4 -30 25 -31 89 -5 75 31 -7 20 -50
19 -71 -1z"/>
<path d="M6042 10811 c-18 -10 -41 -30 -52 -44 -41 -52 -15 -144 48 -172 128
-56 153 -77 152 -124 -2 -64 -102 -90 -189 -50 -33 14 -46 16 -52 8 -9 -15 -1
-39 14 -39 6 0 18 -7 27 -15 24 -22 162 -23 186 -1 11 9 32 28 48 41 27 23 32
42 27 102 -2 26 -73 82 -112 88 -21 4 -39 11 -39 16 0 5 -15 15 -34 23 -38 16
-51 42 -41 85 10 46 93 71 151 46 47 -19 54 -19 54 3 0 39 -134 63 -188 33z"/>
<path d="M4605 10769 c-66 -16 -126 -36 -133 -43 -15 -15 -16 -10 25 -136 8
-25 18 -54 23 -65 5 -11 18 -58 30 -105 26 -106 49 -180 59 -200 5 -9 12 -30
15 -48 4 -17 12 -35 18 -38 13 -8 127 15 154 31 11 7 30 15 42 17 30 4 146 96
168 133 28 45 24 209 -6 288 -12 31 -27 63 -33 70 -7 6 -25 28 -41 47 -16 19
-34 35 -41 35 -7 0 -19 5 -26 11 -15 12 -99 35 -121 33 -7 0 -67 -14 -133 -30z
m159 -38 c3 -4 18 -11 33 -14 48 -9 107 -75 127 -139 10 -32 22 -58 27 -58 5
0 7 -36 5 -80 -5 -89 -33 -152 -80 -183 -19 -13 -159 -57 -180 -57 -9 0 -33
64 -45 120 -14 62 -38 145 -51 175 -5 11 -11 34 -15 50 -3 17 -10 48 -16 70
-19 77 -20 76 51 100 68 24 135 31 144 16z"/>
<path d="M5470 10789 c-14 -4 -36 -11 -50 -13 -15 -3 -42 -18 -63 -33 -46 -35
-67 -94 -67 -185 0 -55 5 -78 28 -120 41 -77 70 -101 139 -116 65 -15 106 -8
191 30 32 15 42 25 42 43 l0 24 -67 -25 c-127 -46 -218 -21 -244 67 -18 58 -6
73 67 80 84 10 205 28 226 35 20 6 24 19 8 29 -5 3 -7 12 -4 19 3 8 -7 40 -22
71 -24 51 -32 60 -81 81 -57 26 -64 27 -103 13z m101 -74 c13 -19 27 -35 32
-35 4 0 7 -20 7 -44 l0 -45 -47 2 c-27 0 -83 -3 -125 -8 l-78 -8 0 38 c0 42
34 105 56 105 8 0 14 4 14 9 0 6 21 12 48 14 26 2 52 4 58 5 6 1 22 -14 35
-33z"/>
<path d="M6556 10781 c-14 -24 -47 -433 -36 -444 4 -5 16 -7 26 -5 15 2 20 16
25 58 4 30 12 98 18 150 6 52 15 124 20 159 6 36 8 68 6 72 -6 9 -55 18 -59
10z"/>
<path d="M6969 10708 c-60 -27 -71 -46 -75 -137 -2 -48 -8 -80 -17 -86 -7 -5
-22 -24 -32 -41 -17 -30 -17 -34 -2 -73 21 -53 21 -61 -1 -61 -27 0 -56 -35
-49 -60 3 -11 1 -23 -4 -26 -12 -7 -2 -43 19 -67 9 -10 38 -29 65 -42 99 -50
256 -25 293 47 16 31 12 98 -5 98 -5 0 -11 9 -14 20 -3 13 -14 20 -30 20 -14
0 -27 7 -31 15 -3 8 -16 15 -28 15 -46 0 -132 30 -155 53 -24 23 -24 24 -7 60
17 36 44 50 44 25 0 -23 71 -45 135 -41 55 3 63 6 91 40 22 26 29 44 26 61 -3
17 -1 23 7 18 19 -12 25 23 7 43 -30 33 -20 48 28 45 29 -2 46 2 49 10 11 27
-11 40 -67 40 -35 1 -58 6 -61 14 -2 6 -15 12 -29 12 -14 0 -28 5 -31 10 -10
17 -77 10 -126 -12z m136 -39 c33 -16 45 -27 45 -43 0 -12 4 -26 9 -31 6 -6 5
-25 -2 -48 -9 -29 -23 -45 -53 -63 -39 -23 -45 -24 -84 -12 -59 18 -80 56 -70
127 12 89 64 113 155 70z m-115 -367 c14 -5 31 -7 38 -5 15 6 74 -43 84 -68
11 -30 -1 -74 -25 -89 -31 -19 -162 -15 -196 6 -54 34 -79 88 -46 100 8 4 15
11 15 17 0 6 9 20 20 32 22 23 61 26 110 7z"/>
<path d="M7586 10563 c-11 -11 -34 -67 -62 -153 -26 -78 -29 -86 -63 -161 -25
-55 -27 -104 -5 -113 27 -10 34 -7 34 19 0 14 5 25 10 25 6 0 10 8 10 17 0 21
43 140 72 199 22 46 62 69 137 77 38 5 47 2 72 -24 26 -27 29 -36 29 -99 0
-39 -4 -70 -9 -70 -5 0 -15 -17 -21 -37 -7 -21 -23 -62 -37 -92 -34 -76 -39
-107 -18 -115 9 -3 24 -2 33 3 16 9 50 100 51 138 1 12 8 28 15 36 20 20 56
129 56 169 0 45 -33 96 -67 104 -15 4 -31 12 -35 18 -8 12 -64 12 -126 1 l-42
-8 2 34 c3 33 -17 51 -36 32z"/>
<path d="M3457 10279 c-78 -51 -107 -92 -107 -149 0 -42 5 -55 38 -93 26 -31
50 -49 80 -57 23 -7 42 -18 42 -24 0 -6 -10 -43 -21 -83 l-22 -72 23 -56 c19
-47 29 -59 66 -75 23 -11 45 -24 48 -28 6 -10 61 -5 91 8 108 44 144 75 186
155 l25 50 82 0 c89 1 115 12 96 43 -11 16 -24 19 -100 21 -51 2 -67 21 -67
82 0 71 -38 143 -71 133 -34 -10 -39 -20 -22 -46 20 -30 41 -137 29 -149 -7
-7 -52 2 -168 34 -78 21 -78 21 -46 80 52 93 52 169 1 225 -26 28 -35 32 -83
32 -43 0 -63 -6 -100 -31z m137 -61 c21 -29 19 -82 -3 -138 -21 -51 -43 -60
-88 -37 -47 25 -83 67 -83 98 0 66 34 96 112 98 38 1 50 -3 62 -21z m76 -312
c30 -9 80 -22 110 -29 53 -12 55 -13 52 -42 -7 -63 -139 -147 -205 -129 -12 3
-35 24 -52 47 -23 33 -29 52 -28 88 0 26 6 56 13 69 13 24 15 24 110 -4z"/>
<path d="M8233 10219 c-43 -18 -64 -40 -45 -47 21 -7 13 -25 -8 -19 -25 6 -62
-37 -58 -67 2 -17 10 -21 43 -22 46 0 78 -12 69 -25 -3 -5 9 -9 25 -9 21 0 31
-5 31 -15 0 -8 6 -15 14 -15 8 0 16 7 20 15 3 10 -1 15 -13 15 -10 0 -21 7
-25 15 -3 8 -14 15 -24 15 -10 0 -28 9 -40 20 -12 11 -26 20 -32 20 -15 0 -12
30 3 30 6 0 21 7 31 15 16 12 17 17 6 30 -12 15 -10 16 23 10 25 -5 37 -4 37
4 0 6 -7 11 -15 11 -8 0 -15 5 -15 10 0 12 25 13 48 1 9 -5 38 -17 65 -26 60
-21 77 -46 77 -110 0 -28 5 -56 11 -62 11 -11 11 -11 -39 -52 -18 -15 -20 -20
-7 -25 22 -8 39 1 62 32 22 30 38 128 22 137 -5 4 -9 -1 -9 -9 0 -8 -5 -18
-12 -22 -8 -5 -9 4 -4 34 6 38 4 42 -14 42 -13 0 -20 7 -20 19 0 50 -132 82
-207 50z"/>
<path d="M8096 10063 c-3 -4 -6 -24 -6 -45 0 -24 -4 -37 -10 -33 -6 4 -10 -10
-10 -34 0 -34 7 -46 52 -91 49 -47 152 -109 164 -98 11 12 -10 38 -32 38 -12
0 -27 6 -31 13 -4 7 -25 26 -45 41 -21 16 -39 39 -43 56 -3 16 -13 34 -21 41
-17 14 -19 30 -2 27 20 -5 38 42 25 63 -13 21 -32 31 -41 22z"/>
<path d="M8330 10004 c0 -14 36 -33 60 -33 22 0 20 2 -14 19 -44 22 -46 23
-46 14z"/>
<path d="M8840 9910 c0 -5 -9 -19 -20 -30 -11 -11 -20 -26 -20 -34 0 -7 -9
-16 -20 -19 -21 -5 -37 -33 -26 -44 3 -4 13 2 20 13 11 14 18 16 26 8 7 -7 20
-10 30 -7 16 4 17 9 8 29 -9 20 -8 28 10 47 26 27 28 47 7 47 -8 0 -15 -4 -15
-10z"/>
<path d="M8918 9818 c-14 -14 -15 -18 -4 -18 8 0 17 7 20 16 9 23 4 24 -16 2z"/>
<path d="M8302 9778 c3 -7 13 -15 22 -16 12 -3 17 1 14 10 -3 7 -13 15 -22 16
-12 3 -17 -1 -14 -10z"/>
<path d="M8980 9781 c0 -18 18 -21 30 -6 10 13 9 15 -9 15 -11 0 -21 -4 -21
-9z"/>
<path d="M8742 9740 c-9 -16 -20 -30 -24 -30 -5 0 -8 -7 -8 -15 0 -8 -4 -15
-10 -15 -5 0 -10 5 -10 10 0 17 -14 11 -28 -10 -9 -16 -10 -26 -1 -41 11 -21
11 -21 28 4 9 14 28 35 43 46 14 12 28 34 30 51 6 38 2 38 -20 0z"/>
<path d="M8702 9740 c0 -14 2 -19 5 -12 2 6 2 18 0 25 -3 6 -5 1 -5 -13z"/>
<path d="M8606 9615 c-20 -20 -20 -26 -1 -19 9 4 15 0 15 -10 0 -9 4 -16 9
-16 10 0 36 29 30 33 -2 1 -11 8 -20 15 -14 10 -20 10 -33 -3z"/>
<path d="M8587 9559 c7 -25 19 -33 26 -16 3 8 -3 18 -13 25 -15 9 -17 8 -13
-9z"/>
<path d="M2752 9486 c-35 -13 -112 -83 -112 -102 0 -7 -6 -14 -13 -17 -7 -3
-19 -23 -27 -46 -10 -33 -11 -43 0 -56 18 -22 26 -19 41 18 23 56 71 116 102
127 42 14 94 2 117 -27 28 -35 26 -45 -19 -82 -56 -47 -95 -130 -87 -182 12
-72 62 -119 129 -119 31 0 45 8 86 49 27 27 54 66 61 88 17 53 19 54 40 43 24
-13 50 -3 50 19 0 9 -27 43 -61 76 -33 33 -73 73 -87 89 -26 28 -59 60 -92 90
-19 17 -76 46 -87 45 -4 -1 -23 -7 -41 -13z m198 -189 c0 -8 9 -22 20 -32 62
-56 9 -195 -74 -195 -51 0 -90 37 -88 83 2 41 21 75 71 124 35 34 71 44 71 20z"/>
<path d="M2319 9052 c-68 -44 -89 -84 -89 -168 0 -84 30 -134 120 -198 126
-89 198 -84 297 22 36 39 53 115 33 152 -18 33 -45 21 -46 -20 -1 -41 -27 -96
-58 -122 -29 -24 -101 -23 -151 3 -46 24 -112 90 -126 126 -25 68 7 142 77
174 56 25 59 49 7 48 -21 0 -50 -8 -64 -17z"/>
<path d="M6799 8753 c-6 -15 -16 -41 -24 -58 -7 -16 -15 -39 -18 -50 -3 -11
-19 -68 -36 -128 -17 -59 -31 -116 -31 -127 0 -10 -4 -21 -9 -24 -5 -4 -21
-45 -36 -94 -39 -128 -44 -142 -76 -217 -10 -24 -29 -98 -36 -143 -3 -18 -9
-35 -14 -38 -5 -3 -9 -13 -9 -23 0 -9 -10 -37 -21 -61 -12 -24 -23 -62 -26
-85 -4 -39 -4 -40 11 -15 16 29 47 120 66 195 12 52 32 108 55 160 7 17 26 75
41 130 14 55 31 104 35 110 5 5 9 17 9 26 0 9 7 30 15 45 8 16 15 37 15 47 0
18 35 136 50 172 13 28 46 134 54 173 9 39 -1 42 -15 5z"/>
<path d="M1794 8648 c-16 -30 -15 -32 7 -49 13 -10 29 -19 35 -19 20 0 36 28
32 56 -2 20 -10 30 -31 35 -24 6 -29 3 -43 -23z"/>
<path d="M1966 8565 c-8 -8 -18 -24 -21 -35 -3 -11 -10 -20 -15 -20 -5 0 -12
-10 -17 -22 -19 -51 -88 -157 -105 -161 -11 -3 -37 4 -59 16 -40 21 -41 21
-55 2 -21 -29 0 -56 74 -92 2 0 -1 -17 -6 -37 -9 -31 -8 -38 8 -46 15 -8 22
-4 38 17 18 24 23 26 43 15 25 -12 100 -55 159 -90 102 -62 170 -69 212 -24
32 34 49 83 36 105 -14 26 -26 21 -42 -18 -16 -38 -54 -54 -89 -37 -12 5 -48
22 -79 37 -32 14 -60 31 -64 36 -3 6 -30 21 -60 35 -30 13 -54 31 -54 39 0 16
30 73 64 119 12 17 28 43 36 59 16 33 23 33 62 6 16 -12 48 -31 71 -43 42 -22
92 -50 180 -101 38 -22 50 -25 62 -15 33 27 10 53 -100 114 -38 22 -84 50
-101 63 -17 12 -36 23 -43 23 -7 0 -31 13 -54 28 -63 43 -64 43 -81 27z"/>
<path d="M4870 8030 c-26 -16 2 -30 91 -44 46 -8 97 -19 112 -25 45 -18 105
-71 117 -105 6 -17 18 -44 25 -61 7 -16 16 -52 19 -80 7 -60 7 -2863 0 -3020
-3 -60 -9 -119 -14 -130 -5 -11 -11 -40 -14 -65 -3 -25 -10 -67 -14 -93 -5
-26 -5 -50 0 -53 11 -7 10 -54 -1 -54 -5 0 -12 12 -14 28 -4 26 -4 25 -6 -5 0
-17 -5 -35 -11 -38 -5 -3 -10 -16 -10 -28 0 -12 -11 -34 -24 -48 -14 -15 -26
-35 -28 -45 -2 -10 -13 -28 -25 -40 -13 -11 -20 -24 -17 -27 3 -3 -4 -11 -16
-17 -26 -14 -22 -32 11 -42 15 -5 9 -5 -17 -2 -29 4 -44 1 -53 -10 -7 -8 -33
-18 -57 -22 -39 -6 -44 -9 -38 -27 5 -15 3 -19 -10 -14 -8 3 -67 7 -130 8 -86
1 -116 5 -120 15 -3 8 -20 14 -40 14 -19 0 -51 9 -70 21 -39 23 -50 13 -13
-11 92 -59 101 -62 256 -61 80 0 169 1 197 1 28 0 58 6 70 15 17 13 17 14 2
15 -20 0 -24 15 -7 25 6 4 17 -2 25 -14 15 -21 64 -30 64 -11 0 6 14 10 30 10
17 0 30 4 30 9 0 5 12 13 28 19 49 17 72 46 72 88 0 50 12 68 38 60 17 -6 22
1 37 49 10 30 15 58 13 61 -10 9 -68 -60 -68 -81 0 -18 -1 -18 -16 4 -9 13
-13 26 -8 30 5 3 17 23 26 44 17 36 40 48 53 27 4 -7 13 -7 25 0 11 6 25 9 31
8 7 -2 18 14 24 36 6 21 18 43 26 50 14 10 14 14 -3 41 -22 36 -23 49 -3 41
10 -4 17 6 25 37 6 23 16 52 22 64 6 11 7 26 3 33 -4 6 0 19 9 29 9 9 19 32
22 49 5 25 3 32 -9 32 -23 0 -37 32 -28 65 10 40 29 42 43 5 8 -23 13 -28 19
-18 5 7 9 21 9 31 0 20 -32 55 -47 50 -5 -2 -16 3 -23 12 -16 19 1 65 23 65
16 0 47 -32 47 -48 0 -7 8 -5 20 5 11 10 20 26 20 35 0 10 4 26 9 36 31 61 65
181 62 221 0 14 -11 45 -22 69 -14 28 -18 47 -12 53 6 6 15 -5 26 -31 20 -53
40 -51 55 5 19 73 16 104 -13 115 -29 11 -32 32 -9 51 13 10 17 10 25 -2 5 -8
9 -22 9 -31 0 -39 18 -24 36 30 10 31 22 61 26 66 4 6 8 21 8 34 0 25 23 101
47 159 7 17 13 42 13 56 0 14 6 32 13 39 6 7 13 24 15 38 1 14 7 27 12 28 6 2
10 14 10 27 0 41 11 55 41 55 27 0 56 -30 42 -43 -3 -4 2 -18 11 -31 9 -14 16
-39 16 -56 0 -18 4 -29 10 -25 6 3 10 1 10 -5 0 -6 8 -10 18 -8 9 2 22 -3 29
-12 11 -13 12 -13 13 3 0 9 5 17 10 17 10 0 12 -7 14 -70 l1 -35 84 -10 c83
-10 111 -26 80 -46 -11 -7 -11 -11 -1 -21 10 -10 15 -10 22 2 8 12 10 11 10
-5 1 -17 4 -16 25 10 13 17 31 38 40 47 18 21 20 65 4 70 -6 2 -13 21 -15 41
-3 38 -54 115 -54 83 0 -9 -4 -16 -9 -16 -10 0 -7 97 3 107 3 4 6 2 6 -4 0 -6
9 -13 20 -16 12 -3 20 -14 20 -26 0 -11 9 -32 21 -45 17 -20 28 -23 56 -19 24
4 38 2 43 -8 13 -20 52 18 44 43 -9 29 23 47 84 48 39 0 57 -5 72 -20 23 -23
45 -18 32 7 -6 9 -5 32 1 55 8 33 7 41 -9 52 -19 14 -44 11 -44 -5 0 -5 8 -9
18 -10 9 0 12 -3 6 -5 -7 -3 -10 -13 -7 -23 3 -10 0 -22 -6 -25 -6 -4 -11 0
-11 10 0 9 -12 28 -27 42 -15 13 -27 35 -28 49 -1 21 1 22 11 9 15 -22 31 -20
37 3 3 12 -3 27 -14 37 -10 9 -19 25 -19 35 0 10 -4 21 -10 24 -6 3 -10 -4
-10 -17 0 -14 -6 -33 -14 -44 -12 -15 -17 -17 -28 -6 -10 10 -10 17 0 32 6 11
12 27 12 35 0 17 -16 20 -25 5 -4 -6 -12 -4 -21 5 -20 20 -44 19 -44 -1 0 -25
-35 -12 -38 15 -2 13 -12 26 -23 28 -10 3 -19 9 -19 13 0 4 -18 10 -41 14 -56
9 -37 31 34 39 69 7 108 -1 114 -24 8 -30 21 -22 25 14 3 34 23 36 23 2 0 -11
7 -32 14 -47 13 -25 15 -26 26 -11 11 14 16 15 28 5 18 -16 34 2 19 21 -5 7
-13 31 -17 55 -4 23 -13 49 -21 56 -8 8 -14 22 -14 30 0 9 -6 16 -14 16 -9 0
-12 -7 -9 -20 3 -11 9 -20 14 -20 5 0 9 -13 9 -30 0 -16 -4 -30 -10 -30 -5 0
-10 9 -10 21 0 31 -20 61 -36 55 -18 -7 -54 14 -54 31 0 16 16 17 25 3 10 -16
35 8 35 34 0 22 -61 96 -79 96 -6 0 -11 -7 -11 -15 0 -27 -67 -11 -105 25 -24
23 -130 41 -163 29 -44 -17 -51 3 -31 88 6 27 16 59 21 72 11 28 6 35 -20 27
-15 -5 -19 -16 -19 -47 0 -22 -5 -50 -10 -62 -6 -12 -24 -67 -42 -123 -34
-109 -40 -167 -17 -158 8 3 16 -3 19 -15 7 -28 -17 -27 -37 1 -17 23 -18 22
-34 -42 -4 -19 -15 -36 -24 -38 -27 -5 -36 28 -27 98 9 70 -2 120 -27 120 -16
0 -17 9 -4 30 8 13 10 13 10 1 0 -24 16 1 28 45 7 23 12 76 12 119 0 67 -3 79
-22 96 l-23 18 22 1 c20 0 21 5 25 108 2 59 0 130 -4 157 -9 71 -8 630 2 690
13 80 34 125 69 147 37 24 38 26 9 37 -21 8 -22 10 -4 16 11 5 21 3 26 -5 6
-9 15 -7 37 10 17 12 49 24 72 27 23 3 44 10 47 14 3 5 27 9 55 9 40 0 49 3
49 18 0 16 -13 17 -153 16 -84 0 -157 -3 -163 -5 -5 -3 -49 -2 -99 2 -134 11
-1037 10 -1055 -1z m997 -1066 c-3 -3 -12 -4 -19 -1 -8 3 -5 6 6 6 11 1 17 -2
13 -5z m13 -395 c12 -22 -4 -54 -21 -43 -16 9 -9 64 7 64 2 0 8 -9 14 -21z
m500 -99 c0 -5 -7 -10 -15 -10 -8 0 -15 5 -15 10 0 6 7 10 15 10 8 0 15 -4 15
-10z m100 0 c0 -5 -4 -10 -9 -10 -6 0 -13 5 -16 10 -3 6 1 10 9 10 9 0 16 -4
16 -10z m-377 -22 c2 -13 8 -31 12 -40 5 -14 2 -18 -13 -18 -27 0 -33 11 -26
49 8 36 20 40 27 9z m390 -17 c-11 -11 -23 -17 -26 -14 -3 3 1 16 10 30 11 17
19 21 26 14 8 -8 5 -17 -10 -30z m-325 -87 l-3 -29 -13 23 c-8 13 -11 31 -7
39 9 26 27 0 23 -33z m72 31 c0 -8 -2 -15 -4 -15 -2 0 -6 7 -10 15 -3 8 -1 15
4 15 6 0 10 -7 10 -15z m280 -75 c0 -5 -10 -10 -22 -10 -19 0 -20 2 -8 10 19
13 30 13 30 0z m0 -196 c0 -8 -4 -12 -10 -9 -5 3 -10 10 -10 16 0 5 5 9 10 9
6 0 10 -7 10 -16z m-100 -24 c13 -9 13 -12 -2 -24 -10 -7 -18 -19 -18 -26 0
-10 3 -10 15 0 14 12 20 7 16 -14 -2 -7 41 -4 91 7 17 3 20 -20 4 -36 -8 -8
-12 -18 -9 -21 4 -4 -20 -4 -52 0 -54 7 -96 27 -82 40 3 3 1 19 -5 36 -8 24
-8 32 3 39 18 11 21 11 39 -1z m-509 -93 c-8 -8 -11 -4 -11 14 0 33 14 47 18
19 2 -12 -1 -27 -7 -33z m83 30 c11 -8 17 -19 15 -26 -3 -9 -11 -7 -27 7 -35
30 -25 46 12 19z m96 -35 c0 -7 -4 -10 -10 -7 -5 3 -10 16 -10 28 0 18 2 19
10 7 5 -8 10 -21 10 -28z m38 -61 c3 -8 -1 -12 -9 -9 -7 2 -15 10 -17 17 -3 8
1 12 9 9 7 -2 15 -10 17 -17z m-318 -12 c0 -5 -4 -9 -10 -9 -5 0 -10 7 -10 16
0 8 5 12 10 9 6 -3 10 -10 10 -16z m67 -1 c-3 -8 -6 -5 -6 6 -1 11 2 17 5 13
3 -3 4 -12 1 -19z m223 -29 c0 -24 -23 -21 -28 4 -2 10 3 17 12 17 10 0 16 -9
16 -21z m-303 -41 c-3 -8 -6 -5 -6 6 -1 11 2 17 5 13 3 -3 4 -12 1 -19z m53 2
c0 -11 -4 -20 -10 -20 -5 0 -10 9 -10 20 0 11 5 20 10 20 6 0 10 -9 10 -20z
m-34 -114 c16 -17 19 -46 4 -46 -5 0 -10 8 -10 18 0 10 -5 23 -12 30 -7 7 -9
12 -4 12 4 0 14 -6 22 -14z m-216 -432 c0 -8 -5 -12 -10 -9 -6 4 -8 11 -5 16
9 14 15 11 15 -7z m17 -66 c-3 -8 -6 -5 -6 6 -1 11 2 17 5 13 3 -3 4 -12 1
-19z m-147 -643 c0 -57 -15 -74 -26 -30 -5 22 11 85 22 85 2 0 4 -25 4 -55z
m-185 -35 c-6 -9 -9 -9 -16 1 -10 17 0 34 13 21 6 -6 7 -16 3 -22z m68 -96 c9
-9 -4 -35 -14 -28 -5 3 -9 12 -9 20 0 14 12 19 23 8z m47 -10 c0 -8 -5 -12
-10 -9 -6 4 -8 11 -5 16 9 14 15 11 15 -7z m-114 -30 c3 -22 2 -25 -6 -14 -10
15 -14 58 -5 48 3 -3 8 -18 11 -34z m144 -15 c0 -20 -15 -26 -24 -10 -8 13 4
42 15 35 5 -3 9 -14 9 -25z m-195 1 c-3 -5 -10 -10 -16 -10 -5 0 -9 5 -9 10 0
6 7 10 16 10 8 0 12 -4 9 -10z m62 -57 c-3 -10 -5 -4 -5 12 0 17 2 24 5 18 2
-7 2 -21 0 -30z m91 -4 l-3 -24 -13 23 c-7 12 -10 27 -6 33 10 17 26 -6 22
-32z m-128 -14 c15 -18 6 -45 -14 -45 -20 0 -29 16 -21 40 8 24 18 25 35 5z
m-50 -124 c-11 -42 -26 -53 -37 -26 -3 9 2 24 12 35 11 12 15 28 12 41 -5 20
-4 21 9 7 13 -13 14 -22 4 -57z m26 -72 c-8 -13 -15 -28 -15 -34 0 -5 -7 -11
-15 -13 -22 -5 -20 17 5 57 14 23 24 30 31 23 7 -7 5 -17 -6 -33z m-76 17 c0
-8 -7 -16 -15 -20 -8 -3 -15 -17 -15 -32 0 -35 -24 -26 -28 11 -3 21 0 26 11
22 9 -3 17 2 20 14 6 22 27 26 27 5z m45 -106 c-3 -5 -15 -10 -26 -10 -10 0
-19 5 -19 10 0 6 12 10 26 10 14 0 23 -4 19 -10z"/>
<path d="M1386 7925 c-9 -9 -12 -23 -9 -33 13 -35 76 -122 88 -122 19 0 25 25
11 46 -8 11 -26 43 -41 72 -15 28 -29 52 -30 52 -2 0 -10 -7 -19 -15z"/>
<path d="M1618 7847 c-46 -46 -68 -78 -68 -98 0 -10 -4 -21 -10 -24 -39 -24
40 -205 90 -205 10 0 24 -7 31 -17 38 -45 183 -70 235 -40 43 25 80 63 94 97
7 19 20 44 27 55 18 27 17 129 -2 145 -22 18 -35 3 -35 -42 0 -61 -19 -113
-57 -158 -32 -37 -38 -40 -86 -40 -67 1 -89 17 -81 59 4 17 11 34 15 37 5 3 9
14 9 25 0 10 4 27 9 37 28 54 61 151 56 165 -9 23 -59 37 -131 37 -58 0 -65
-3 -96 -33z m160 -50 c7 -8 6 -19 -3 -37 -8 -14 -14 -33 -15 -42 0 -10 -4 -18
-10 -18 -5 0 -12 -16 -16 -35 -3 -19 -10 -38 -15 -41 -5 -3 -9 -13 -9 -24 0
-41 -46 -33 -87 14 -39 44 -23 180 22 189 47 10 123 6 133 -6z"/>
<path d="M6448 7644 c-5 -4 -8 -19 -8 -33 1 -23 2 -24 11 -8 11 19 9 53 -3 41z"/>
<path d="M6418 7553 c-9 -10 -23 -43 -31 -73 -46 -164 -81 -276 -87 -280 -4
-3 -20 -50 -34 -105 -15 -55 -31 -101 -36 -103 -6 -2 -10 -14 -10 -27 0 -12
-8 -42 -19 -66 -10 -24 -22 -62 -26 -83 -6 -35 -5 -38 8 -27 9 6 21 35 28 64
6 29 18 61 25 72 7 11 16 41 19 68 4 26 16 64 26 84 11 21 19 45 19 55 0 9 5
20 10 23 6 3 10 16 10 28 0 12 7 31 15 41 8 11 15 33 15 49 0 15 9 52 21 80
71 175 87 245 47 200z"/>
<path d="M1407 7314 c-4 -4 -7 -14 -7 -22 0 -20 -32 -92 -41 -92 -3 0 -26 7
-50 15 -46 17 -57 12 -61 -24 -3 -21 4 -26 51 -40 l53 -16 -6 -42 c-5 -41 -4
-43 19 -43 18 0 28 7 35 24 5 13 13 27 19 30 5 4 56 -5 113 -20 217 -55 230
-55 279 -5 31 30 39 46 39 74 0 36 -24 72 -41 62 -5 -4 -9 -15 -9 -26 0 -11
-7 -34 -16 -50 -20 -39 -18 -39 -258 22 l-88 22 5 51 c2 28 6 58 8 66 4 15
-31 27 -44 14z"/>
<path d="M1298 6798 c-20 -17 -38 -72 -38 -117 0 -54 11 -111 22 -111 5 0 22
-10 38 -21 23 -17 38 -21 70 -16 50 6 89 40 130 112 36 62 78 90 113 74 60
-27 68 -125 16 -189 -35 -42 -37 -60 -5 -60 67 0 110 160 67 250 -20 44 -72
72 -124 66 -41 -5 -79 -38 -112 -100 -23 -43 -78 -96 -101 -96 -8 0 -26 11
-39 25 -27 26 -33 79 -15 115 6 11 15 29 20 40 18 36 -9 53 -42 28z"/>
<path d="M6370 6545 c19 -7 43 -14 54 -14 15 -1 16 2 6 14 -8 9 -28 15 -54 14
l-41 -1 35 -13z"/>
<path d="M1045 6248 c-3 -8 -4 -83 -3 -168 l3 -155 225 -13 c124 -6 263 -11
310 -10 l85 3 7 159 c7 162 2 196 -28 196 -21 0 -23 -11 -27 -145 -2 -67 -6
-126 -10 -132 -8 -12 -201 -6 -226 7 -10 6 -13 32 -12 114 l2 107 -28 -3 -28
-3 -2 -100 c-2 -55 -5 -106 -8 -112 -5 -15 -181 -18 -203 -4 -11 6 -13 37 -10
137 3 127 3 129 -20 132 -12 2 -24 -3 -27 -10z"/>
<path d="M6658 6148 c-6 -17 1 -38 13 -38 5 0 9 11 9 25 0 26 -14 34 -22 13z"/>
<path d="M6728 5922 c-4 -12 -2 -25 4 -28 16 -10 22 4 11 28 l-10 22 -5 -22z"/>
<path d="M6726 5787 c-10 -37 -7 -57 9 -57 10 0 15 10 15 34 0 41 -15 56 -24
23z"/>
<path d="M6781 5774 c0 -11 3 -14 6 -6 3 7 2 16 -1 19 -3 4 -6 -2 -5 -13z"/>
<path d="M6077 5713 c-4 -3 -7 -20 -6 -37 l1 -31 9 34 c10 33 8 47 -4 34z"/>
<path d="M6762 5690 c0 -14 2 -19 5 -12 2 6 2 18 0 25 -3 6 -5 1 -5 -13z"/>
<path d="M6690 5670 c0 -19 3 -21 12 -12 9 9 9 15 0 24 -9 9 -12 7 -12 -12z"/>
<path d="M6087 5643 c-11 -11 -8 -47 6 -68 19 -30 55 -125 63 -167 3 -21 10
-38 14 -38 5 0 10 -12 12 -27 l3 -28 23 25 c23 25 29 64 12 75 -6 4 -10 -7
-10 -25 0 -50 -24 -30 -31 25 -3 27 -11 51 -17 53 -7 2 -12 19 -12 39 0 40 21
42 30 2 7 -29 29 -31 44 -4 6 11 17 24 24 28 11 7 10 12 -5 23 -14 11 -15 16
-5 22 7 5 10 16 6 26 -5 14 -14 16 -41 11 -25 -4 -43 -1 -67 14 -37 23 -40 24
-49 14z m118 -73 c3 -5 -1 -10 -10 -10 -9 0 -13 5 -10 10 3 6 8 10 10 10 2 0
7 -4 10 -10z"/>
<path d="M6840 5550 c0 -11 5 -20 10 -20 6 0 10 9 10 20 0 11 -4 20 -10 20 -5
0 -10 -9 -10 -20z"/>
<path d="M6275 5550 c-3 -5 3 -10 14 -10 12 0 21 5 21 10 0 6 -6 10 -14 10 -8
0 -18 -4 -21 -10z"/>
<path d="M6490 5525 c0 -8 5 -15 10 -15 6 0 10 7 10 15 0 8 -4 15 -10 15 -5 0
-10 -7 -10 -15z"/>
<path d="M6283 5483 c-4 -10 -11 -21 -17 -25 -6 -4 -7 -11 -2 -15 5 -4 11 -2
13 5 3 6 11 12 19 12 8 0 14 -6 14 -12 0 -27 85 -70 102 -52 11 11 -5 44 -21
44 -10 0 -30 14 -46 30 -33 34 -53 38 -62 13z"/>
<path d="M6490 5340 c0 -5 5 -10 10 -10 6 0 10 5 10 10 0 6 -4 10 -10 10 -5 0
-10 -4 -10 -10z"/>
<path d="M6237 5290 c-4 -18 -13 -30 -22 -30 -19 0 -20 6 16 -86 42 -109 51
-127 43 -89 -14 72 -16 105 -5 105 14 0 15 57 1 65 -5 3 -10 19 -10 36 0 38
-16 38 -23 -1z m23 -65 c0 -35 -13 -47 -23 -21 -7 18 3 56 14 56 5 0 9 -16 9
-35z"/>
<path d="M6306 5196 c-8 -42 2 -88 18 -83 14 4 20 53 10 75 -4 10 -8 20 -8 24
-3 23 -15 14 -20 -16z"/>
<path d="M1115 5123 c4 -16 9 -59 12 -98 3 -38 9 -76 15 -82 5 -7 11 -29 13
-50 4 -54 30 -180 48 -233 9 -25 19 -63 22 -85 4 -22 13 -60 20 -85 7 -25 21
-74 31 -110 9 -36 21 -69 25 -75 4 -5 19 -53 33 -105 14 -52 37 -117 50 -145
13 -27 34 -79 47 -115 12 -36 37 -96 54 -135 18 -38 38 -86 45 -105 8 -19 21
-46 30 -60 9 -14 22 -45 29 -70 7 -25 20 -56 29 -70 20 -30 66 -114 86 -155 8
-17 24 -39 35 -49 12 -11 21 -25 21 -32 0 -8 9 -19 20 -26 11 -7 20 -20 20
-29 0 -8 14 -31 30 -49 17 -19 45 -56 61 -82 17 -27 37 -48 45 -48 8 0 14 -9
14 -20 0 -11 17 -39 38 -63 21 -23 45 -53 54 -67 16 -26 91 -114 156 -185 20
-22 55 -62 77 -90 58 -71 101 -115 112 -115 5 0 15 -10 22 -22 7 -13 29 -36
50 -52 22 -15 44 -38 51 -50 6 -12 26 -30 44 -40 18 -9 40 -30 50 -47 9 -16
21 -29 26 -29 5 0 28 -20 51 -45 24 -25 53 -48 66 -51 13 -4 31 -16 41 -28 15
-19 81 -71 178 -141 15 -11 53 -41 83 -67 30 -26 67 -53 81 -60 14 -7 33 -20
42 -28 9 -8 42 -28 72 -44 31 -16 56 -33 56 -37 0 -4 34 -24 75 -44 41 -20 75
-40 75 -44 0 -4 16 -13 35 -21 19 -8 35 -18 35 -23 0 -5 6 -7 14 -4 8 3 20 -1
26 -9 7 -8 18 -14 25 -14 7 0 16 -7 19 -17 6 -14 9 -14 27 5 21 23 39 29 39
12 0 -5 -4 -10 -10 -10 -5 0 -10 -9 -10 -20 0 -13 7 -20 20 -20 11 0 20 5 20
11 0 8 4 8 15 -1 8 -6 13 -17 12 -23 -1 -6 7 -13 18 -15 11 -2 29 -13 41 -23
11 -11 23 -16 27 -12 4 3 15 -1 25 -10 12 -11 30 -16 50 -13 34 4 44 -9 15
-18 -10 -2 -2 -5 17 -4 51 0 57 -1 41 -11 -11 -7 -6 -11 21 -16 19 -4 47 -18
63 -31 28 -24 75 -33 75 -14 0 5 -11 12 -25 16 -32 8 -32 17 3 32 26 11 26 12
-11 7 -27 -3 -40 0 -43 10 -3 8 -14 17 -25 20 -27 9 -7 45 25 45 29 0 39 -10
25 -26 -12 -15 -9 -17 43 -28 14 -3 34 -9 45 -12 16 -6 16 -5 -2 9 -19 15 -19
16 -2 23 12 4 22 1 30 -10 12 -16 14 -16 35 2 26 23 28 32 5 32 -24 0 -83 23
-83 32 0 4 -5 8 -12 8 -6 0 -40 14 -74 31 -35 17 -74 29 -86 27 -15 -2 -27 4
-33 16 -5 11 -23 23 -39 27 -15 4 -36 14 -45 22 -9 8 -27 18 -41 22 -21 6 -59
27 -165 92 -61 37 -100 54 -117 50 -10 -3 -21 -1 -24 4 -3 5 0 9 5 9 6 0 11 5
11 10 0 6 -6 10 -14 10 -8 0 -16 4 -18 10 -1 5 -12 11 -23 13 -24 3 -71 33
-103 64 -13 12 -43 31 -66 43 -24 11 -53 31 -66 45 -13 14 -27 25 -32 25 -5 0
-34 19 -65 43 -30 23 -65 49 -77 57 -12 8 -38 30 -57 48 -19 18 -47 40 -63 49
-16 8 -40 28 -53 43 -13 16 -38 38 -56 49 -18 11 -40 33 -50 50 -10 17 -25 31
-33 31 -8 0 -14 5 -14 10 0 6 -7 10 -16 10 -9 0 -18 9 -21 19 -3 11 -23 32
-44 47 -21 15 -51 42 -66 60 -15 19 -31 34 -37 34 -6 0 -21 14 -33 31 -11 17
-55 66 -97 109 -42 42 -76 81 -76 85 0 4 -19 29 -42 54 -75 82 -102 115 -142
171 -22 30 -43 57 -48 58 -4 2 -8 10 -8 18 0 8 -7 14 -15 14 -8 0 -15 5 -15
12 0 6 -22 44 -50 84 -27 40 -50 75 -50 78 0 3 -18 31 -41 63 -22 32 -45 67
-50 78 -10 22 -31 57 -39 65 -3 3 -22 41 -44 85 -21 44 -42 82 -46 85 -7 5
-37 75 -117 270 -19 47 -45 108 -58 135 -12 28 -30 77 -40 110 -9 33 -25 79
-35 102 -11 23 -24 59 -29 80 -5 21 -24 97 -41 168 -18 72 -38 144 -46 162 -8
17 -14 40 -14 51 0 11 -9 65 -19 119 -11 54 -19 109 -18 123 0 14 -5 50 -12
81 -14 65 -22 69 -138 69 l-65 0 7 -27z m1600 -2723 c3 -5 1 -10 -4 -10 -6 0
-11 5 -11 10 0 6 2 10 4 10 3 0 8 -4 11 -10z m475 -540 c0 -5 -5 -10 -11 -10
-5 0 -7 5 -4 10 3 6 8 10 11 10 2 0 4 -4 4 -10z m110 -2 c0 -4 -7 -8 -15 -8
-8 0 -15 4 -15 8 0 5 7 9 15 9 8 0 15 -4 15 -9z m100 2 c0 -5 -4 -10 -9 -10
-6 0 -13 5 -16 10 -3 6 1 10 9 10 9 0 16 -4 16 -10z m-35 -50 c-3 -5 -13 -10
-21 -10 -8 0 -14 5 -14 10 0 6 9 10 21 10 11 0 17 -4 14 -10z m175 -39 c0 -12
-20 -25 -27 -18 -7 7 6 27 18 27 5 0 9 -4 9 -9z m-160 -27 c0 -8 -7 -14 -15
-14 -15 0 -21 21 -9 33 10 9 24 -2 24 -19z m90 1 c0 -8 -7 -15 -15 -15 -8 0
-15 7 -15 15 0 8 7 15 15 15 8 0 15 -7 15 -15z m110 -25 c0 -5 -4 -10 -10 -10
-5 0 -10 5 -10 10 0 6 5 10 10 10 6 0 10 -4 10 -10z m-120 -20 c0 -5 -5 -10
-11 -10 -5 0 -7 5 -4 10 3 6 8 10 11 10 2 0 4 -4 4 -10z m54 -4 c-21 -15 -30
-14 -19 3 3 6 14 11 23 11 13 0 13 -2 -4 -14z m65 -33 c12 -16 26 -34 32 -41
6 -7 9 -15 6 -18 -2 -2 -21 16 -41 41 -21 25 -33 45 -27 45 5 0 19 -12 30 -27z
m206 -43 c4 -6 10 -8 15 -5 11 7 60 -5 60 -14 0 -3 -12 -12 -27 -19 -23 -10
-29 -10 -36 3 -4 8 -15 15 -22 15 -8 0 -15 7 -15 15 0 17 16 20 25 5z m138
-102 c-8 -14 -28 -8 -40 11 -7 10 -9 21 -6 24 8 8 52 -26 46 -35z m92 15 l35
-17 -31 -13 c-57 -24 -107 -11 -61 16 16 10 16 10 0 11 -10 0 -18 5 -18 10 0
15 35 12 75 -7z m-215 -13 c0 -5 -4 -10 -10 -10 -5 0 -10 5 -10 10 0 6 5 10
10 10 6 0 10 -4 10 -10z m40 -20 c0 -5 -7 -10 -15 -10 -8 0 -15 5 -15 10 0 6
7 10 15 10 8 0 15 -4 15 -10z m30 -30 c0 -5 -4 -10 -10 -10 -5 0 -10 5 -10 10
0 6 5 10 10 10 6 0 10 -4 10 -10z"/>
<path d="M6290 4987 c0 -18 24 -67 33 -67 8 0 9 26 1 58 -7 23 -34 31 -34 9z"/>
<path d="M6397 4871 c-3 -12 -1 -24 4 -27 13 -8 24 25 12 37 -7 7 -12 3 -16
-10z"/>
<path d="M6422 4765 c0 -16 2 -22 5 -12 2 9 2 23 0 30 -3 6 -5 -1 -5 -18z"/>
<path d="M5585 4410 c-3 -5 3 -10 14 -10 12 0 21 5 21 10 0 6 -6 10 -14 10 -8
0 -18 -4 -21 -10z"/>
<path d="M5535 4400 c3 -5 10 -10 16 -10 5 0 9 5 9 10 0 6 -7 10 -16 10 -8 0
-12 -4 -9 -10z"/>
<path d="M5698 4403 c6 -2 18 -2 25 0 6 3 1 5 -13 5 -14 0 -19 -2 -12 -5z"/>
<path d="M5357 4208 c-9 -52 -15 -95 -10 -73 3 11 9 22 13 25 13 8 24 80 12
80 -5 0 -12 -15 -15 -32z"/>
<path d="M4340 4187 c0 -8 7 -18 16 -21 11 -4 14 -1 12 11 -4 21 -28 30 -28
10z"/>
<path d="M4370 4145 c0 -13 53 -84 67 -89 30 -12 26 4 -13 48 -36 40 -54 54
-54 41z"/>
<path d="M5290 4112 c0 -21 5 -43 11 -49 9 -9 8 -21 -5 -46 -9 -19 -16 -41
-16 -49 0 -8 -4 -18 -9 -23 -5 -6 -12 -35 -15 -65 l-6 -55 20 40 c11 22 17 48
14 58 -3 9 2 24 10 33 9 8 16 28 16 44 0 16 5 32 10 35 13 8 13 44 -1 84 -15
42 -29 39 -29 -7z"/>
<path d="M5220 3791 c-5 -11 -10 -28 -10 -38 1 -16 3 -15 20 6 21 25 26 51 10
51 -5 0 -14 -9 -20 -19z"/>
<path d="M5182 3675 c-13 -50 -16 -82 -5 -71 10 9 33 78 33 99 0 33 -16 17
-28 -28z"/>
<path d="M5140 3559 c0 -11 5 -17 10 -14 6 3 10 13 10 21 0 8 -4 14 -10 14 -5
0 -10 -9 -10 -21z"/>
<path d="M5124 3491 c3 -18 6 -37 6 -42 0 -5 5 -9 10 -9 16 0 12 44 -6 66 -15
18 -15 17 -10 -15z"/>
<path d="M5091 3378 c-7 -29 -19 -63 -27 -75 -8 -12 -14 -30 -14 -40 0 -10 -7
-27 -15 -37 -19 -26 -19 -52 0 -60 17 -6 31 17 20 34 -4 6 0 21 8 33 23 36 61
177 50 188 -6 6 -14 -10 -22 -43z"/>
<path d="M5011 3138 c0 -7 4 -22 9 -33 8 -18 9 -17 9 7 1 15 -3 30 -9 33 -5 3
-10 0 -9 -7z"/>
<path d="M4990 3070 c0 -11 4 -20 9 -20 5 0 7 9 4 20 -3 11 -7 20 -9 20 -2 0
-4 -9 -4 -20z"/>
<path d="M4960 3000 c0 -16 5 -30 10 -30 6 0 10 14 10 30 0 17 -4 30 -10 30
-5 0 -10 -13 -10 -30z"/>
<path d="M4950 2910 c0 -11 5 -20 10 -20 6 0 10 9 10 20 0 11 -4 20 -10 20 -5
0 -10 -9 -10 -20z"/>
<path d="M4915 2813 c-3 -23 -13 -49 -20 -60 -16 -20 -20 -63 -7 -63 13 0 51
134 42 149 -5 10 -10 1 -15 -26z"/>
<path d="M4850 2633 c0 -26 1 -26 15 -7 19 25 19 34 0 34 -10 0 -15 -10 -15
-27z"/>
<path d="M4787 2434 c-4 -4 -7 -14 -7 -23 0 -11 3 -12 11 -4 6 6 10 16 7 23
-2 6 -7 8 -11 4z"/>
<path d="M4762 2350 c0 -14 2 -19 5 -12 2 6 2 18 0 25 -3 6 -5 1 -5 -13z"/>
<path d="M4260 1450 c0 -5 10 -10 23 -10 18 0 19 2 7 10 -19 13 -30 13 -30 0z"/>
<path d="M4302 1419 c-13 -5 -21 -13 -18 -18 7 -11 44 -3 71 16 19 12 19 13
-5 12 -14 0 -35 -4 -48 -10z"/>
<path d="M4152 1403 c-37 -5 -39 -26 -4 -31 12 -2 22 -8 22 -13 0 -5 11 -9 25
-9 29 0 33 21 9 44 -8 9 -16 15 -17 14 -1 0 -17 -3 -35 -5z"/>
<path d="M4283 1356 c-28 -13 -30 -26 -3 -26 11 0 20 5 20 10 0 6 18 10 40 10
22 0 40 5 40 10 0 13 -69 11 -97 -4z"/>
<path d="M4500 1360 c0 -5 10 -10 23 -10 18 0 19 2 7 10 -19 13 -30 13 -30 0z"/>
<path d="M4128 1343 c7 -3 16 -2 19 1 4 3 -2 6 -13 5 -11 0 -14 -3 -6 -6z"/>
<path d="M4207 1319 c7 -7 15 -10 18 -7 3 3 -2 9 -12 12 -14 6 -15 5 -6 -5z"/>
<path d="M4320 1320 c0 -5 6 -10 14 -10 8 0 18 5 21 10 3 6 -3 10 -14 10 -12
0 -21 -4 -21 -10z"/>
<path d="M4276 1301 c-18 -7 -18 -8 4 -14 27 -7 39 -1 24 12 -5 5 -18 5 -28 2z"/>
<path d="M4413 1293 c9 -2 23 -2 30 0 6 3 -1 5 -18 5 -16 0 -22 -2 -12 -5z"/>
<path d="M4460 1270 c0 -5 11 -10 25 -10 14 0 25 5 25 10 0 6 -11 10 -25 10
-14 0 -25 -4 -25 -10z"/>
<path d="M4415 1240 c3 -5 13 -10 21 -10 8 0 14 5 14 10 0 6 -9 10 -21 10 -11
0 -17 -4 -14 -10z"/>
<path d="M4558 1243 c6 -2 18 -2 25 0 6 3 1 5 -13 5 -14 0 -19 -2 -12 -5z"/>
<path d="M4480 1210 c0 -5 7 -10 16 -10 8 0 12 5 9 10 -3 6 -10 10 -16 10 -5
0 -9 -4 -9 -10z"/>
</g>
</svg>
